<?xml version="1.0" standalone="no"?>
<!DOCTYPE svg PUBLIC "-//W3C//DTD SVG 20010904//EN"
 "http://www.w3.org/TR/2001/REC-SVG-20010904/DTD/svg10.dtd">
<svg version="1.0" xmlns="http://www.w3.org/2000/svg"
 width="512.000000pt" height="512.000000pt" viewBox="0 0 512.000000 512.000000"
 preserveAspectRatio="xMidYMid meet">
<metadata>
Created by potrace 1.14, written by Peter Selinger 2001-2017
</metadata>
<g transform="translate(0.000000,512.000000) scale(0.100000,-0.100000)"
fill="#000000" stroke="none">
<path d="M390 5031 c0 -302 60 -1209 87 -1318 5 -22 10 -23 102 -23 l96 0 195
518 196 517 467 3 467 2 0 -2169 0 -2169 -117 -21 c-159 -30 -251 -53 -425
-108 l-148 -46 0 -109 0 -108 1250 0 1250 0 0 109 0 108 -87 31 c-120 42 -207
64 -420 108 l-183 38 0 2168 0 2168 467 -2 467 -3 181 -481 c99 -265 186 -497
193 -518 l13 -36 103 0 104 0 10 93 c6 50 13 117 17 147 9 98 44 748 51 973
l7 217 -2171 0 -2172 0 0 -89z"/>
</g>
</svg>
